<?xml version="1.0" encoding="UTF-8" standalone="no"?>
<!-- Created with Inkscape (http://www.inkscape.org/) -->

<svg
   xmlns:dc="http://purl.org/dc/elements/1.1/"
   xmlns:cc="http://creativecommons.org/ns#"
   xmlns:rdf="http://www.w3.org/1999/02/22-rdf-syntax-ns#"
   xmlns:svg="http://www.w3.org/2000/svg"
   xmlns="http://www.w3.org/2000/svg"
   xmlns:sodipodi="http://sodipodi.sourceforge.net/DTD/sodipodi-0.dtd"
   xmlns:inkscape="http://www.inkscape.org/namespaces/inkscape"
   width="237.52396mm"
   height="62.194427mm"
   viewBox="0 0 237.52396 62.194428"
   version="1.1"
   id="svg8"
   inkscape:version="0.92.5 (2060ec1f9f, 2020-04-08)"
   sodipodi:docname="tdevelopers-logo.svg">
  <defs
     id="defs2">
    <inkscape:path-effect
       effect="bspline"
       id="path-effect927"
       is_visible="true"
       weight="33.333333"
       steps="2"
       helper_size="0"
       apply_no_weight="true"
       apply_with_weight="true"
       only_selected="false" />
    <inkscape:path-effect
       effect="bspline"
       id="path-effect923"
       is_visible="true"
       weight="33.333333"
       steps="2"
       helper_size="0"
       apply_no_weight="true"
       apply_with_weight="true"
       only_selected="false" />
    <inkscape:perspective
       sodipodi:type="inkscape:persp3d"
       inkscape:vp_x="-94.754074 : 162.00051 : 1"
       inkscape:vp_y="0 : 513.49866 : 0"
       inkscape:vp_z="-17.927831 : 162.00051 : 1"
       inkscape:persp3d-origin="-56.340952 : 136.58233 : 1"
       id="perspective847" />
    <clipPath
       clipPathUnits="userSpaceOnUse"
       id="clipPath940">
      <rect
         style="fill:#00ff00;fill-opacity:1;stroke:#ff2a2a;stroke-width:2.591223;stroke-miterlimit:4;stroke-dasharray:none;stroke-opacity:1"
         id="rect942"
         width="82.17585"
         height="162.5896"
         x="-259.77869"
         y="6.7563772"
         rx="78.619087"
         ry="78.619087" />
    </clipPath>
    <clipPath
       clipPathUnits="userSpaceOnUse"
       id="clipPath944">
      <rect
         style="fill:#00ff00;fill-opacity:1;stroke:#ff2a2a;stroke-width:2.61999989;stroke-miterlimit:4;stroke-dasharray:none;stroke-opacity:1"
         id="rect946"
         width="123.74579"
         height="110.38231"
         x="-382.99722"
         y="4.6071367"
         rx="78.619087"
         ry="78.619087" />
    </clipPath>
    <clipPath
       clipPathUnits="userSpaceOnUse"
       id="clipPath948">
      <rect
         style="fill:#00ff00;fill-opacity:1;stroke:#ff2a2a;stroke-width:2.61999989;stroke-miterlimit:4;stroke-dasharray:none;stroke-opacity:1"
         id="rect950"
         width="123.74579"
         height="110.38231"
         x="-382.99722"
         y="4.6071367"
         rx="78.619087"
         ry="78.619087" />
    </clipPath>
    <clipPath
       clipPathUnits="userSpaceOnUse"
       id="clipPath952">
      <rect
         style="fill:#00ff00;fill-opacity:1;stroke:#ff2a2a;stroke-width:2.61999989;stroke-miterlimit:4;stroke-dasharray:none;stroke-opacity:1"
         id="rect954"
         width="123.74579"
         height="110.38231"
         x="-382.99722"
         y="4.6071367"
         rx="78.619087"
         ry="78.619087" />
    </clipPath>
    <clipPath
       clipPathUnits="userSpaceOnUse"
       id="clipPath987">
      <rect
         style="fill:#6c5353;fill-opacity:1;stroke:#ffccaa;stroke-width:0.09052301;stroke-opacity:1"
         id="rect989"
         width="62.180599"
         height="62.180599"
         x="-353.15005"
         y="32.583408"
         ry="53.374607"
         rx="118.38979"
         clip-path="url(#clipPath948)"
         transform="matrix(0.66406985,0,0,1.4729679,-5.4417714,-0.0297872)" />
    </clipPath>
  </defs>
  <sodipodi:namedview
     id="base"
     pagecolor="#ffffff"
     bordercolor="#666666"
     borderopacity="1.0"
     inkscape:pageopacity="0.0"
     inkscape:pageshadow="2"
     inkscape:zoom="0.49497475"
     inkscape:cx="213.82343"
     inkscape:cy="128.7739"
     inkscape:document-units="mm"
     inkscape:current-layer="layer1"
     showgrid="false"
     inkscape:snap-global="false"
     inkscape:window-width="1366"
     inkscape:window-height="683"
     inkscape:window-x="0"
     inkscape:window-y="0"
     inkscape:window-maximized="1"
     showguides="true"
     inkscape:guide-bbox="true" />
  <metadata
     id="metadata5">
    <rdf:RDF>
      <cc:Work
         rdf:about="">
        <dc:format>image/svg+xml</dc:format>
        <dc:type
           rdf:resource="http://purl.org/dc/dcmitype/StillImage" />
        <dc:title />
      </cc:Work>
    </rdf:RDF>
  </metadata>
  <g
     inkscape:label="Layer 1"
     inkscape:groupmode="layer"
     id="layer1"
     transform="translate(716.12625,20.076957)">
    <g
       id="g912">
      <g
         transform="translate(26.994222,-9.8889725)"
         clip-path="url(#clipPath952)"
         id="g896">
        <path
           id="rect872"
           d="M 47.927418,37.264175 H 85.72504 c 43.55495,0 78.61905,35.064096 78.61905,78.619045 v 34.00843 c 0,43.55495 -35.0641,78.61905 -78.61905,78.61905 H 47.927418 c -43.5549534,0 -78.619049,-35.0641 -78.619049,-78.61905 v -34.00843 c 0,-43.554949 35.0640956,-78.619045 78.619049,-78.619045 z"
           style="fill:#6c5353;fill-opacity:1;stroke:none;stroke-width:0.22193228;stroke-opacity:1" />
        <path
           style="fill:none;fill-rule:evenodd;stroke:#ffccaa;stroke-width:3.02242804;stroke-opacity:1"
           d="m 100.91357,122.73476 c 4.24404,3.97535 -43.120501,33.61782 -46.414111,33.04386 -8.92535,-1.55532 -10.93843,-13.23852 -7.75937,-20.55608 5.68662,-13.08924 22.05143,-15.48247 33.15356,-8.80972 16.292807,9.79261 19.678577,24.47492 9.926067,40.13814 -12.998637,20.87657 -40.248687,18.66141 -59.202457,4.98645 C 6.7657381,154.32877 1.9744681,132.56139 18.524378,108.79339 38.568659,80.007019 64.971629,77.770531 91.680726,98.558875 123.15635,123.0571 121.78757,154.35674 98.380706,186.1766 71.356619,222.9138 49.483799,216.74741 15.050488,188.80792 -24.074881,157.06125 -18.056381,132.04186 12.231308,92.191453 46.209559,47.485361 74.931289,41.644575 117.0748,76.752685 159.34967,111.97011 168.43716,222.41106 52.875389,195.99508"
           id="path869"
           inkscape:connector-curvature="0"
           sodipodi:nodetypes="cccccsssssscc" />
      </g>
      <g
         id="flowRoot902"
         style="font-style:normal;font-weight:normal;font-size:40px;line-height:1.25;font-family:sans-serif;letter-spacing:0px;word-spacing:0px;fill:#000000;fill-opacity:1;stroke:none"
         clip-path="url(#clipPath944)"
         transform="translate(26.994222,-9.8889725)" />
      <g
         id="flowRoot848"
         style="font-style:normal;font-weight:normal;font-size:40px;line-height:1.25;font-family:sans-serif;letter-spacing:0px;word-spacing:0px;fill:#000000;fill-opacity:1;stroke:none" />
      <g
         id="g2131">
        <path
           id="rect985"
           d="m -322.05976,32.583408 c 17.22403,0 31.0903,13.866274 31.0903,31.0903 0,17.224026 -13.86627,31.0903 -31.0903,31.0903 -17.22402,0 -31.09029,-13.866274 -31.09029,-31.0903 0,-17.224026 13.86627,-31.0903 31.09029,-31.0903 z"
           clip-path="url(#clipPath948)"
           style="fill:#6c5353;fill-opacity:1;stroke:none;stroke-width:0.09052301;stroke-opacity:1"
           transform="translate(-362.92401,-52.652097)" />
        <g
           aria-label="t"
           transform="matrix(1.490213,0.2165568,-0.09763203,0.67184456,-349.05359,-4.478089)"
           style="font-style:normal;font-weight:normal;font-size:19.0709095px;line-height:1.25;font-family:sans-serif;letter-spacing:0px;word-spacing:0px;fill:#ff7f2a;fill-opacity:1;stroke:#ff2a2a;stroke-width:2.59122324;stroke-miterlimit:4;stroke-dasharray:none;stroke-opacity:1"
           id="text912"
           clip-path="url(#clipPath987)">
          <path
             style="fill:#ff6600;fill-opacity:1;stroke:#ff2a2a;stroke-width:2.59122324;stroke-linecap:butt;stroke-linejoin:miter;stroke-miterlimit:4;stroke-dasharray:none;stroke-opacity:1"
             d="m -257.24036,117.91383 c 30.94294,-26.927518 61.88559,-53.854783 71.48868,-64.753049 9.6031,-10.898265 -2.13322,-5.76777 -13.86992,-0.637109 m -32.43099,-18.711536 c 6.82112,45.342448 13.64214,90.684234 18.83136,111.614274 5.18923,20.93003 8.74607,17.447 12.30261,13.96426"
             id="path925"
             inkscape:connector-curvature="0" />
        </g>
        <g
           id="g903"
           transform="translate(0,6.879167)">
          <g
             id="text846"
             style="font-style:normal;font-weight:normal;font-size:17.52375412px;line-height:1.25;font-family:sans-serif;letter-spacing:0px;word-spacing:0px;fill:#6c5353;fill-opacity:1;stroke:none;stroke-width:0.43809387"
             aria-label="TODAWATA">
            <path
               id="path866"
               style="font-style:normal;font-variant:normal;font-weight:normal;font-stretch:normal;font-size:32.71100998px;font-family:'Atozimple Medium';-inkscape-font-specification:'Atozimple Medium, ';fill:#6c5353;fill-opacity:1;stroke-width:0.43809387"
               d="M -628.84207,3.2574301 V -17.506395 h 7.33122 v -2.587492 h -17.44161 v 2.587492 h 7.31525 V 3.2574301 Z"
               inkscape:connector-curvature="0" />
            <path
               id="path868"
               style="font-style:normal;font-variant:normal;font-weight:normal;font-stretch:normal;font-size:32.71100998px;font-family:'Atozimple Medium';-inkscape-font-specification:'Atozimple Medium, ';fill:#6c5353;fill-opacity:1;stroke-width:0.43809387"
               d="m -612.21504,3.5449292 c 1.77291,0 3.32221,-0.3194435 4.67984,-0.926386 1.35764,-0.6069426 2.49166,-1.4694399 3.40208,-2.55554769 0.92638,-1.08610771 1.61319,-2.34790941 2.07638,-3.80137711 0.47916,-1.4534678 0.70277,-3.0187407 0.70277,-4.6798467 0,-1.6770777 -0.22361,-3.2423507 -0.70277,-4.6958187 -0.46319,-1.453468 -1.15,-2.715269 -2.07638,-3.801377 -0.91042,-1.086108 -2.04444,-1.932633 -3.40208,-2.555548 -1.35763,-0.606942 -2.90693,-0.910414 -4.67984,-0.910414 -1.75694,0 -3.32221,0.303472 -4.66388,0.910414 -1.35763,0.622915 -2.49166,1.46944 -3.41804,2.555548 -0.91042,1.086108 -1.59722,2.347909 -2.07638,3.801377 -0.4632,1.453468 -0.70278,3.018741 -0.70278,4.6958187 0,1.661106 0.23958,3.2263789 0.70278,4.6798467 0.47916,1.4534677 1.16596,2.7152694 2.07638,3.80137711 0.92638,1.08610779 2.06041,1.94860509 3.41804,2.55554769 1.34167,0.6069425 2.90694,0.926386 4.66388,0.926386 z m 0,-2.60346419 c -2.63541,0 -4.66388,-0.92638602 -6.0854,-2.77915811 -1.30972,-1.7090225 -1.96458,-3.9131823 -1.96458,-6.5805352 0,-2.6833247 0.65486,-4.8874847 1.96458,-6.5965077 1.42152,-1.852772 3.44999,-2.779158 6.0854,-2.779158 2.63541,0 4.66387,0.926386 6.0854,2.779158 1.32569,1.709023 1.98054,3.913183 1.98054,6.5965077 0,2.6673529 -0.65485,4.8715127 -1.98054,6.5805352 -1.42153,1.85277209 -3.44999,2.77915811 -6.0854,2.77915811 z"
               inkscape:connector-curvature="0" />
            <path
               id="path870"
               style="font-style:normal;font-variant:normal;font-weight:normal;font-stretch:normal;font-size:32.71100998px;font-family:'Atozimple Medium';-inkscape-font-specification:'Atozimple Medium, ';fill:#6c5353;fill-opacity:1;stroke-width:0.43809387"
               d="m -591.17969,3.2574301 c 2.39582,0 4.5361,-0.4472209 6.43678,-1.3576347 1.88472,-0.91041387 3.37013,-2.23610421 4.45624,-3.9770711 1.08611,-1.7249946 1.62916,-3.8492936 1.62916,-6.3409526 0,-2.5715197 -0.63888,-4.8235957 -1.90069,-6.7562287 -0.7986,-1.197913 -1.75694,-2.156244 -2.89096,-2.874991 -2.10833,-1.357635 -4.69582,-2.044439 -7.73053,-2.044439 h -6.72429 V 3.2574301 Z m 0,-2.58749202 h -3.91318 V -17.506395 h 3.91318 c 3.80138,0 6.53262,1.229858 8.22567,3.689572 0.99027,1.501385 1.48541,3.30624 1.48541,5.3985947 0,2.0124938 -0.3993,3.6735998 -1.21389,5.0312345 -0.81458,1.3416625 -1.9486,2.3479094 -3.40207,3.03471281 -1.46944,0.67083126 -3.16249,1.02221907 -5.09512,1.02221907 z"
               inkscape:connector-curvature="0" />
            <path
               id="path872"
               style="font-style:normal;font-variant:normal;font-weight:normal;font-stretch:normal;font-size:32.71100998px;font-family:'Atozimple Medium';-inkscape-font-specification:'Atozimple Medium, ';fill:#6c5353;fill-opacity:1;stroke-width:0.43809387"
               d="m -556.29646,3.2574301 -10.63747,-23.3513171 h -1.82083 l -10.62149,23.3513171 h 2.97082 l 2.34791,-5.1909562 h 12.36246 l 2.36388,5.1909562 z m -6.58054,-7.7784482 h -9.99858 l 4.99929,-10.9888549 z"
               inkscape:connector-curvature="0" />
            <path
               id="path874"
               style="font-style:normal;font-variant:normal;font-weight:normal;font-stretch:normal;font-size:32.71100998px;font-family:'Atozimple Medium';-inkscape-font-specification:'Atozimple Medium, ';fill:#6c5353;fill-opacity:1;stroke-width:0.43809387"
               d="m -535.97986,3.2574301 8.30553,-23.3513171 h -2.76319 l -6.43679,18.1124444 -6.43678,-18.1124444 h -1.88472 l -6.43678,18.1124444 -6.45276,-18.1124444 h -2.85902 l 8.30553,23.3513171 h 1.88472 l 6.43678,-18.1124441 6.45276,18.1124441 z"
               inkscape:connector-curvature="0" />
            <path
               id="path876"
               style="font-style:normal;font-variant:normal;font-weight:normal;font-stretch:normal;font-size:32.71100998px;font-family:'Atozimple Medium';-inkscape-font-specification:'Atozimple Medium, ';fill:#6c5353;fill-opacity:1;stroke-width:0.43809387"
               d="m -509.09869,3.2574301 -10.63747,-23.3513171 h -1.82083 l -10.62149,23.3513171 h 2.97082 l 2.34791,-5.1909562 h 12.36246 l 2.36388,5.1909562 z m -6.58054,-7.7784482 h -9.99858 l 4.99929,-10.9888549 z"
               inkscape:connector-curvature="0" />
            <path
               id="path878"
               style="font-style:normal;font-variant:normal;font-weight:normal;font-stretch:normal;font-size:32.71100998px;font-family:'Atozimple Medium';-inkscape-font-specification:'Atozimple Medium, ';fill:#6c5353;fill-opacity:1;stroke-width:0.43809387"
               d="M -503.97163,3.2574301 V -17.506395 h 7.33123 v -2.587492 h -17.44162 v 2.587492 h 7.31526 V 3.2574301 Z"
               inkscape:connector-curvature="0" />
            <path
               id="path880"
               style="font-style:normal;font-variant:normal;font-weight:normal;font-stretch:normal;font-size:32.71100998px;font-family:'Atozimple Medium';-inkscape-font-specification:'Atozimple Medium, ';fill:#6c5353;fill-opacity:1;stroke-width:0.43809387"
               d="m -478.83142,3.2574301 -10.63747,-23.3513171 h -1.82083 l -10.62149,23.3513171 h 2.97082 l 2.34791,-5.1909562 h 12.36246 l 2.36389,5.1909562 z m -6.58054,-7.7784482 h -9.99858 l 4.99929,-10.9888549 z"
               inkscape:connector-curvature="0" />
          </g>
          <g
             aria-label="t"
             transform="matrix(0.52716849,0.08441395,-0.0345377,0.26188535,-493.14783,-14.524426)"
             style="font-style:normal;font-weight:normal;font-size:19.0709095px;line-height:1.25;font-family:sans-serif;letter-spacing:0px;word-spacing:0px;fill:#ff7f2a;fill-opacity:1;stroke:#ff2a2a;stroke-width:2.59122324;stroke-miterlimit:4;stroke-dasharray:none;stroke-opacity:1"
             id="g890"
             clip-path="url(#clipPath987)">
            <path
               style="fill:#ff7f2a;fill-opacity:1;stroke:#ff2a2a;stroke-width:2.59122324;stroke-linecap:butt;stroke-linejoin:miter;stroke-miterlimit:4;stroke-dasharray:none;stroke-opacity:1"
               d="m -257.24036,117.91383 c 30.94294,-26.927518 61.88559,-53.854783 71.48868,-64.753049 9.6031,-10.898265 -2.13322,-5.76777 -13.86992,-0.637109 m -32.43099,-18.711536 c 6.82112,45.342448 13.64214,90.684234 18.83136,111.614274 5.18923,20.93003 8.74607,17.447 12.30261,13.96426"
               id="path888"
               inkscape:connector-curvature="0" />
          </g>
        </g>
        <g
           aria-label="D E V E L O P E R S"
           style="font-style:normal;font-weight:normal;font-size:18.47227478px;line-height:1.25;font-family:sans-serif;letter-spacing:0px;word-spacing:0px;fill:#808080;fill-opacity:1;stroke:none;stroke-width:0.46180686"
           id="text911"
           transform="matrix(1.0382683,0,0,1.0382683,22.490828,1.8819627)">
          <path
             d="m -632.67508,32.766922 c 1.01923,0 1.96629,-0.144315 2.83218,-0.432944 0.86589,-0.27961 1.61452,-0.703534 2.25492,-1.262753 0.63137,-0.559219 1.12745,-1.253734 1.48824,-2.065503 0.35177,-0.82079 0.52314,-1.767855 0.52314,-2.832175 0,-1.461186 -0.35177,-2.741979 -1.06432,-3.824339 -0.86589,-1.289812 -2.1106,-2.119621 -3.73414,-2.498447 -0.74863,-0.180393 -1.5153,-0.27059 -2.30002,-0.27059 h -3.59884 v 13.186751 z m 0,-0.631377 h -2.84119 V 20.211548 h 2.84119 c 1.53335,0 2.83218,0.333727 3.8965,1.001183 0.56824,0.351767 1.0553,0.829809 1.46119,1.425107 0.65843,0.992163 0.99216,2.173739 0.99216,3.535709 0,1.298831 -0.27059,2.390211 -0.80275,3.283158 -0.53216,0.883927 -1.28079,1.551382 -2.23688,2.002366 -0.94706,0.450983 -2.05648,0.676474 -3.31022,0.676474 z"
             style="font-style:normal;font-variant:normal;font-weight:normal;font-stretch:normal;font-family:'Atozimple ExtraLight';-inkscape-font-specification:'Atozimple ExtraLight, ';fill:#808080;stroke-width:0.46180686"
             id="path867"
             inkscape:connector-curvature="0" />
          <path
             d="m -610.34238,32.766922 v -0.622357 h -7.33299 V 27.42728 h 6.61141 v -0.622357 h -6.61141 v -6.602395 h 7.33299 v -0.622357 h -8.08162 v 13.186751 z"
             style="font-style:normal;font-variant:normal;font-weight:normal;font-stretch:normal;font-family:'Atozimple ExtraLight';-inkscape-font-specification:'Atozimple ExtraLight, ';fill:#808080;stroke-width:0.46180686"
             id="path871"
             inkscape:connector-curvature="0" />
          <path
             d="m -598.49054,32.766922 6.0071,-13.186751 h -0.76668 l -5.46591,12.023214 -5.47494,-12.023214 h -0.79373 l 6.0071,13.186751 z"
             style="font-style:normal;font-variant:normal;font-weight:normal;font-stretch:normal;font-family:'Atozimple ExtraLight';-inkscape-font-specification:'Atozimple ExtraLight, ';fill:#808080;stroke-width:0.46180686"
             id="path873"
             inkscape:connector-curvature="0" />
          <path
             d="m -578.6563,32.766922 v -0.622357 h -7.33299 V 27.42728 h 6.61142 v -0.622357 h -6.61142 v -6.602395 h 7.33299 v -0.622357 h -8.08162 v 13.186751 z"
             style="font-style:normal;font-variant:normal;font-weight:normal;font-stretch:normal;font-family:'Atozimple ExtraLight';-inkscape-font-specification:'Atozimple ExtraLight, ';fill:#808080;stroke-width:0.46180686"
             id="path875"
             inkscape:connector-curvature="0" />
          <path
             d="m -563.89111,32.766922 v -0.622357 h -7.33299 V 19.580171 h -0.74863 v 13.186751 z"
             style="font-style:normal;font-variant:normal;font-weight:normal;font-stretch:normal;font-family:'Atozimple ExtraLight';-inkscape-font-specification:'Atozimple ExtraLight, ';fill:#808080;stroke-width:0.46180686"
             id="path877"
             inkscape:connector-curvature="0" />
          <path
             d="m -552.75182,32.929276 c 1.00118,0 1.88511,-0.180393 2.64276,-0.523141 0.75765,-0.342747 1.39805,-0.829809 1.90315,-1.443146 0.51412,-0.613337 0.90197,-1.325891 1.16354,-2.14668 0.25255,-0.82079 0.38784,-1.704717 0.38784,-2.642762 0,-0.947065 -0.13529,-1.830993 -0.38784,-2.651782 -0.26157,-0.82079 -0.64942,-1.533343 -1.16354,-2.14668 -0.5051,-0.613338 -1.1455,-1.09138 -1.90315,-1.443147 -0.75765,-0.342747 -1.64158,-0.514121 -2.64276,-0.514121 -0.99216,0 -1.87609,0.171374 -2.63374,0.514121 -0.75765,0.351767 -1.39805,0.829809 -1.91217,1.443147 -0.5051,0.613337 -0.89295,1.32589 -1.15452,2.14668 -0.26157,0.820789 -0.38784,1.704717 -0.38784,2.651782 0,0.938045 0.12627,1.821972 0.38784,2.642762 0.26157,0.820789 0.64942,1.533343 1.15452,2.14668 0.51412,0.613337 1.15452,1.100399 1.91217,1.443146 0.75765,0.342748 1.64158,0.523141 2.63374,0.523141 z m 0,-0.631377 c -1.41609,0 -2.58864,-0.441963 -3.51767,-1.307851 -0.65843,-0.622357 -1.12746,-1.36197 -1.40707,-2.218838 -0.27059,-0.856868 -0.40588,-1.722756 -0.40588,-2.597663 0,-0.874908 0.13529,-1.740796 0.40588,-2.606684 0.27961,-0.856868 0.74864,-1.596481 1.40707,-2.209818 0.92903,-0.874907 2.10158,-1.316871 3.51767,-1.316871 1.41609,0 2.59766,0.441964 3.52669,1.316871 0.65844,0.613337 1.12746,1.35295 1.39805,2.209818 0.27961,0.865888 0.4149,1.731776 0.4149,2.606684 0,0.874907 -0.13529,1.740795 -0.4149,2.597663 -0.27059,0.856868 -0.73961,1.596481 -1.39805,2.218838 -0.92903,0.865888 -2.1106,1.307851 -3.52669,1.307851 z"
             style="font-style:normal;font-variant:normal;font-weight:normal;font-stretch:normal;font-family:'Atozimple ExtraLight';-inkscape-font-specification:'Atozimple ExtraLight, ';fill:#808080;stroke-width:0.46180686"
             id="path879"
             inkscape:connector-curvature="0" />
          <path
             d="M -538.63604,32.766922 V 27.42728 h 3.81531 c 1.42511,0 2.57963,-0.288629 3.45454,-0.856868 1.00118,-0.658436 1.50628,-1.677658 1.50628,-3.066686 0,-1.380009 -0.5051,-2.408251 -1.50628,-3.066687 -0.87491,-0.568239 -2.02943,-0.856868 -3.45454,-0.856868 h -4.57297 v 13.186751 z m 3.81531,-5.961999 h -3.81531 v -6.593375 h 3.81531 c 1.47021,0 2.57061,0.315688 3.29218,0.956084 0.61334,0.568239 0.92001,1.34393 0.92001,2.336094 0,0.992163 -0.30667,1.767854 -0.92001,2.336093 -0.72157,0.640396 -1.82197,0.965104 -3.29218,0.965104 z"
             style="font-style:normal;font-variant:normal;font-weight:normal;font-stretch:normal;font-family:'Atozimple ExtraLight';-inkscape-font-specification:'Atozimple ExtraLight, ';fill:#808080;stroke-width:0.46180686"
             id="path881"
             inkscape:connector-curvature="0" />
          <path
             d="m -514.9955,32.766922 v -0.622357 h -7.33299 V 27.42728 h 6.61142 v -0.622357 h -6.61142 v -6.602395 h 7.33299 v -0.622357 h -8.08162 v 13.186751 z"
             style="font-style:normal;font-variant:normal;font-weight:normal;font-stretch:normal;font-family:'Atozimple ExtraLight';-inkscape-font-specification:'Atozimple ExtraLight, ';fill:#808080;stroke-width:0.46180686"
             id="path883"
             inkscape:connector-curvature="0" />
          <path
             d="m -498.9405,32.766922 -4.14904,-5.357681 0.2796,-0.02706 c 0.7757,-0.07216 1.47021,-0.261571 2.07453,-0.5502 0.60432,-0.297649 1.08236,-0.712553 1.43412,-1.253733 0.35177,-0.5502 0.52315,-1.235695 0.52315,-2.074523 0,-1.380009 -0.49609,-2.408251 -1.50629,-3.066687 -0.87491,-0.568239 -2.02942,-0.856868 -3.45453,-0.856868 h -4.57297 v 13.186751 h 0.75765 V 27.42728 h 3.60787 l 4.14002,5.339642 z m -4.79846,-5.961999 h -3.81532 v -6.593375 h 3.81532 c 1.4702,0 2.5706,0.315688 3.29218,0.956084 0.61333,0.568239 0.92,1.34393 0.92,2.336094 0,0.992163 -0.30667,1.767854 -0.92,2.336093 -0.72158,0.640396 -1.82198,0.965104 -3.29218,0.965104 z"
             style="font-style:normal;font-variant:normal;font-weight:normal;font-stretch:normal;font-family:'Atozimple ExtraLight';-inkscape-font-specification:'Atozimple ExtraLight, ';fill:#808080;stroke-width:0.46180686"
             id="path885"
             inkscape:connector-curvature="0" />
          <path
             d="m -487.67493,32.929276 c 0.4149,0 0.85687,-0.03608 1.31687,-0.09922 0.46902,-0.06314 0.92001,-0.171374 1.36197,-0.324708 0.43294,-0.153335 0.83883,-0.360787 1.19059,-0.613338 0.36079,-0.25255 0.6404,-0.568238 0.85687,-0.947064 0.21648,-0.378826 0.32471,-0.82079 0.32471,-1.343931 0,-0.938045 -0.39686,-1.704716 -1.19059,-2.272955 -0.41491,-0.297649 -0.90197,-0.5502 -1.46119,-0.766672 -0.55922,-0.207452 -1.13648,-0.405885 -1.72276,-0.586278 -1.36197,-0.432944 -2.25491,-0.730593 -2.69688,-0.910986 -1.38001,-0.54118 -2.07452,-1.316871 -2.07452,-2.327074 0,-0.568239 0.18039,-1.06432 0.5502,-1.497264 0.27059,-0.315689 0.61334,-0.55922 1.01922,-0.739613 0.40589,-0.171374 0.83883,-0.288629 1.28981,-0.360787 0.46001,-0.06314 0.88393,-0.09922 1.2808,-0.09922 1.45216,0 2.87727,0.288629 4.25728,0.865888 l 0.26157,-0.568239 c -1.47021,-0.613337 -2.97649,-0.920006 -4.51885,-0.920006 -1.26276,0 -2.34512,0.225492 -3.23806,0.685495 -1.10942,0.559219 -1.65962,1.443146 -1.65962,2.633742 0,0.947065 0.39686,1.704717 1.18157,2.290995 0.38785,0.27961 0.84785,0.523141 1.38001,0.730593 0.53216,0.207452 1.10942,0.405885 1.71374,0.586278 1.40707,0.432944 2.33609,0.739613 2.7961,0.920006 1.38001,0.54118 2.07452,1.325891 2.07452,2.336093 0,0.992164 -0.5051,1.704717 -1.50628,2.16472 -0.79374,0.351767 -1.72276,0.53216 -2.78708,0.53216 -1.53334,0 -3.00355,-0.306668 -4.41062,-0.929025 l -0.27961,0.559219 c 1.49727,0.667455 3.05767,1.001183 4.69023,1.001183 z"
             style="font-style:normal;font-variant:normal;font-weight:normal;font-stretch:normal;font-family:'Atozimple ExtraLight';-inkscape-font-specification:'Atozimple ExtraLight, ';fill:#808080;stroke-width:0.46180686"
             id="path887"
             inkscape:connector-curvature="0" />
        </g>
      </g>
    </g>
  </g>
</svg>
